<svg xmlns="http://www.w3.org/2000/svg" version="1.1" viewBox="-5.0 -10.0 110.0 135.0">
 <path d="m72.07 26.852c-1.0898 0-2.0742 0.4375-2.7891 1.1484-0.71094 0.71094-1.1523 1.6953-1.1523 2.7852s0.44141 2.0742 1.1523 2.7852c0.71094 0.71094 1.6953 1.1523 2.7852 1.1523s2.0742-0.4375 2.7852-1.1484v-0.003907c0.71094-0.71094 1.1523-1.6953 1.1523-2.7852s-0.44141-2.0703-1.1523-2.7852l-0.046874-0.050781c-0.70313-0.67969-1.668-1.0977-2.7344-1.0977zm-46.773 57.27h7.9141c0.14062 0 0.26562-0.054688 0.35937-0.14453 0.09375-0.089843 0.15234-0.21484 0.15625-0.35156l0.046876-1.6758-0.046876-1.6758c-0.007812-0.33594 0.003907-0.66406 0.039063-0.98828-0.14062-0.94922-0.52344-1.8242-1.0859-2.5703-0.67188-0.89062-1.5938-1.5938-2.6406-2.0078-0.58984 0.4375-1.2383 0.80078-1.9375 1.0625-0.875 0.33203-1.8203 0.51172-2.8047 0.51172-0.98047 0-1.9258-0.17969-2.8047-0.51172-0.69531-0.26562-1.3477-0.625-1.9375-1.0625-1.0469 0.41016-1.9688 1.1133-2.6406 2.0078-0.74219 0.98438-1.1797 2.1992-1.1406 3.5078l0.09375 3.4023c0.003906 0.13672 0.0625 0.25781 0.15625 0.35156 0.089843 0.085938 0.21875 0.14453 0.35937 0.14453zm7.9141 2.2227h-15.828c-0.73437 0-1.4102-0.29688-1.9023-0.77734-0.49219-0.47656-0.80469-1.1445-0.82422-1.8867l-0.09375-3.4023c-0.050781-1.832 0.55469-3.5273 1.5859-4.8945 1.0625-1.4102 2.5938-2.4766 4.332-2.9766 0.375-0.10938 0.76172-0.007812 1.0391 0.23438 0.51172 0.45312 1.1055 0.8125 1.7578 1.0625 0.625 0.23438 1.3047 0.36719 2.0234 0.36719s1.3984-0.12891 2.0234-0.36719c0.65234-0.24609 1.2461-0.60938 1.7578-1.0625 0.27344-0.24219 0.66016-0.34375 1.0391-0.23438 1.7383 0.5 3.2656 1.5625 4.332 2.9766 0.15234 0.20313 0.29688 0.41406 0.42969 0.63281 0.13281-0.21875 0.27734-0.42969 0.42969-0.63281 1.0625-1.4102 2.5938-2.4766 4.332-2.9766 0.375-0.10938 0.76172-0.007812 1.0352 0.23438 0.51172 0.45312 1.1055 0.8125 1.7578 1.0625 0.625 0.23438 1.3047 0.36719 2.0234 0.36719s1.3984-0.12891 2.0234-0.36719c0.65234-0.24609 1.2461-0.60938 1.7578-1.0625 0.27344-0.24219 0.66016-0.34375 1.0391-0.23438 1.7383 0.5 3.2695 1.5625 4.332 2.9766 0.15234 0.20313 0.29688 0.41406 0.42969 0.63281 0.13281-0.21875 0.27734-0.42969 0.42969-0.63281 1.0625-1.4102 2.5938-2.4766 4.332-2.9766 0.375-0.10938 0.76562-0.007812 1.0391 0.23438 0.51172 0.45312 1.1055 0.8125 1.7578 1.0625 0.625 0.23438 1.3047 0.36719 2.0234 0.36719s1.3984-0.12891 2.0234-0.36719c0.65234-0.24609 1.2461-0.60938 1.7578-1.0625 0.27344-0.24219 0.66016-0.34375 1.0391-0.23438 1.7383 0.5 3.2656 1.5625 4.332 2.9766 1.0312 1.3672 1.6328 3.0625 1.5859 4.8945l-0.09375 3.4023c-0.019531 0.74219-0.33203 1.4062-0.82422 1.8867-0.49219 0.48047-1.168 0.77734-1.9023 0.77734h-15.832c-0.625 0-1.2031-0.21094-1.668-0.57031-0.46094 0.35937-1.043 0.57031-1.668 0.57031h-15.828c-0.625 0-1.2031-0.21094-1.668-0.57031-0.46484 0.35547-1.043 0.57031-1.668 0.57031zm2.7852-7.0547c0.03125 0.32422 0.046875 0.65625 0.039062 0.98828l-0.046875 1.6758 0.046875 1.6758c0.003906 0.13672 0.0625 0.25781 0.15625 0.35156 0.089844 0.085937 0.21875 0.14453 0.35938 0.14453h15.828c0.14062 0 0.26562-0.054688 0.35938-0.14453 0.09375-0.089844 0.15234-0.21484 0.15625-0.35156l0.046875-1.6758-0.046875-1.6758c-0.007812-0.33594 0.003907-0.66406 0.035157-0.98828-0.14063-0.94922-0.52344-1.8242-1.0859-2.5703-0.67188-0.89062-1.5938-1.5938-2.6406-2.0078-0.58984 0.4375-1.2383 0.80078-1.9375 1.0625-0.875 0.33203-1.8203 0.51172-2.8047 0.51172-0.98047 0-1.9258-0.17969-2.8047-0.51172-0.69531-0.26563-1.3477-0.625-1.9375-1.0625-1.0469 0.41016-1.9688 1.1133-2.6406 2.0078-0.55859 0.74609-0.94531 1.625-1.082 2.5703zm-10.699-9.375c1.0039 0 1.9141-0.40625 2.5703-1.0586 0.65625-0.65625 1.0625-1.5625 1.0625-2.5703 0-1.0039-0.40625-1.9141-1.0625-2.5703s-1.5625-1.0625-2.5703-1.0625c-1.0039 0-1.9102 0.40625-2.5664 1.0625s-1.0625 1.5625-1.0625 2.5664 0.40625 1.9102 1.0625 2.5664c0.65625 0.66016 1.5625 1.0664 2.5664 1.0664zm4.1328 0.50781c-1.0586 1.0586-2.5195 1.7148-4.1328 1.7148-1.6172 0-3.0781-0.65625-4.1367-1.7148s-1.7148-2.5234-1.7148-4.1367c0-1.6172 0.65625-3.0781 1.7148-4.1367 1.0586-1.0586 2.5234-1.7148 4.1367-1.7148s3.0742 0.65625 4.1328 1.7148l0.003906 0.003906c1.0586 1.0586 1.7148 2.5195 1.7148 4.1328 0 1.6133-0.65625 3.0742-1.7148 4.1328zm25.73 8.8672c0.03125 0.32422 0.046875 0.65625 0.039063 0.98828l-0.046875 1.6758 0.046875 1.6758c0.003906 0.13672 0.0625 0.25781 0.15625 0.35156 0.089843 0.085937 0.21875 0.14453 0.35938 0.14453h15.828c0.14062 0 0.26562-0.054688 0.35938-0.14453 0.09375-0.089844 0.15234-0.21484 0.15625-0.35156l0.09375-3.4023c0.035156-1.3047-0.39844-2.5234-1.1406-3.5078-0.67188-0.89062-1.5938-1.5938-2.6406-2.0078-0.58984 0.4375-1.2383 0.80078-1.9375 1.0625-0.875 0.33203-1.8203 0.51172-2.8047 0.51172-0.98047 0-1.9297-0.17969-2.8047-0.51172-0.69531-0.26563-1.3477-0.625-1.9375-1.0625-1.0469 0.41016-1.9688 1.1133-2.6406 2.0078-0.5625 0.74609-0.94922 1.625-1.0859 2.5703zm-10.699-9.375c1.0039 0 1.9102-0.40625 2.5664-1.0625s1.0625-1.5625 1.0625-2.5664-0.40625-1.9141-1.0586-2.5664l-0.003906-0.003906c-0.65234-0.65625-1.5625-1.0586-2.5664-1.0586-1.0039 0-1.9102 0.40625-2.5664 1.0625s-1.0625 1.5625-1.0625 2.5664 0.40625 1.9102 1.0625 2.5664 1.5625 1.0625 2.5664 1.0625zm4.1367 0.50781c-1.0586 1.0586-2.5234 1.7148-4.1367 1.7148-1.6172 0-3.0781-0.65625-4.1367-1.7148-1.0586-1.0586-1.7148-2.5234-1.7148-4.1367 0-1.6172 0.65625-3.0781 1.7148-4.1367 1.0586-1.0586 2.5234-1.7148 4.1367-1.7148 1.6094 0 3.0703 0.65625 4.1328 1.7109l0.007812 0.007813c1.0586 1.0625 1.7148 2.5234 1.7148 4.1328-0.003906 1.6172-0.66016 3.0781-1.7188 4.1367zm15.027-0.50781c1 0 1.9102-0.40625 2.5664-1.0625s1.0625-1.5625 1.0625-2.5664-0.40625-1.9141-1.0586-2.5664l-0.003906-0.003906c-0.65234-0.65625-1.5625-1.0586-2.5664-1.0586s-1.9141 0.40625-2.5703 1.0625-1.0625 1.5625-1.0625 2.5703c0 1.0039 0.40625 1.9141 1.0625 2.5703 0.66016 0.64844 1.5664 1.0547 2.5703 1.0547zm4.1367 0.50781c-1.0586 1.0586-2.5234 1.7148-4.1367 1.7148s-3.0742-0.65625-4.1328-1.7148l-0.003907-0.003906c-1.0586-1.0586-1.7148-2.5195-1.7148-4.1328 0-1.6133 0.65625-3.0742 1.7148-4.1328l0.003907-0.003906c1.0586-1.0586 2.5195-1.7148 4.1328-1.7148 1.6094 0 3.0703 0.65625 4.1289 1.7109l0.007813 0.007813c1.0586 1.0625 1.7148 2.5234 1.7148 4.1328 0 1.6172-0.65625 3.0781-1.7148 4.1367zm-18.18-23.586c-0.13281-0.046876-0.25391-0.12109-0.36719-0.22266l-12.629-11.512c-0.45313-0.41406-0.48438-1.1133-0.074219-1.5664 0.41016-0.45312 1.1133-0.48438 1.5664-0.074218l12.555 11.441c0.61719-0.5625 1.4062-0.85547 2.1992-0.86719 0.8125-0.015625 1.6289 0.26562 2.2812 0.84375l3.4727 2.7031c0.13672-0.19531 0.26953-0.39062 0.41797-0.55469l0.44922-0.67969c1.9883-3.0078 5.1797-7.8359 8.6094-8.4922 0.09375-0.023438 0.19141-0.039063 0.28906-0.039063 0.91016 0 1.7344-0.039062 2.5469-0.082031 4.1641-0.20312 8.0742-0.39844 10.824 3.8555l5.5664 7.3125c0.5625 0.74609 0.84766 1.6367 0.85156 2.5312 0.003906 0.89062-0.26953 1.7812-0.82031 2.5312-0.054687 0.074218-0.11719 0.14062-0.1875 0.19922l-6.0195 4.9688c-0.57031 0.46484-1.2734 0.68359-1.9688 0.65625-0.71875-0.027343-1.4258-0.31641-1.9688-0.85937l-0.007812-0.007813c-0.33203-0.33594-0.57031-0.73047-0.70703-1.1523l-11.266 0.003907c-0.61328 0-1.1094-0.5-1.1094-1.1094v-4.293c-0.625 0.77734-1.3008 1.5508-1.9219 2.0938-3.0273 2.6484-6.875-0.44922-9.6367-2.9375-0.027344 0-0.054688 0.003906-0.082032 0.003906l-35.586 0.050781c-0.60938 0-1.1055-0.49609-1.1055-1.1094v-29.117h-0.039062c-1.0586 0-2.0234-0.43359-2.7188-1.1289-0.69531-0.69531-1.1289-1.6602-1.1289-2.7188 0-1.0586 0.43359-2.0234 1.1289-2.7188 0.69531-0.69531 1.6602-1.1289 2.7188-1.1289h57.508c1.0586 0 2.0234 0.43359 2.7188 1.1289 0.69531 0.69531 1.1289 1.6602 1.1289 2.7188 0 1.0586-0.43359 2.0234-1.1289 2.7188-0.69531 0.69531-1.6602 1.1289-2.7188 1.1289h-0.039062v3.3711c1.2227 0.22266 2.3203 0.80859 3.1797 1.6406l0.066407 0.0625c1.1133 1.1133 1.8047 2.6562 1.8047 4.3555 0 1.7031-0.6875 3.2422-1.8047 4.3555h-0.003907c-1.1172 1.1172-2.6562 1.8047-4.3516 1.8047-1.6992 0-3.2422-0.69141-4.3555-1.8047-1.1133-1.1172-1.8047-2.6562-1.8047-4.3555 0-1.6992 0.69141-3.2422 1.8047-4.3555h0.003906c0.86719-0.86719 1.9883-1.4766 3.2461-1.7031v-3.3711h-53.012v28.008l32.199-0.046875c-0.42578-0.59375-0.62891-1.2969-0.61719-1.9961 0.003907-0.16016 0.019532-0.32422 0.042969-0.48437zm28.957 9.8906c0 0.035157-0.003906 0.070313-0.011718 0.10156v0.050781c0.007812 0.17578 0.078125 0.34766 0.21094 0.48438l0.003907 0.003907c0.13281 0.13281 0.30859 0.20312 0.48047 0.21094 0.16406 0.007813 0.33594-0.042969 0.47656-0.15234l5.9062-4.8789c0.21875-0.33984 0.32422-0.72656 0.32422-1.1094 0-0.42188-0.14063-0.84375-0.41016-1.2031l-5.5703-7.3203-0.066407-0.09375c-2.0625-3.2148-5.3633-3.0547-8.8789-2.8789-0.87109 0.042969-1.7578 0.085938-2.5664 0.089844-2.4922 0.5-5.3555 4.8359-7.1406 7.5352l-0.48828 0.73438c-0.042969 0.070313-0.097656 0.13672-0.15625 0.19922-0.046875 0.046875-0.15234 0.20312-0.26172 0.35938-0.17969 0.25781-0.36328 0.52734-0.58594 0.75-0.61328 0.61719-1.2695 0.83984-1.9883 0.18359l-4.082-3.1758-0.074219-0.066407c-0.22266-0.20703-0.51172-0.30859-0.79297-0.30469-0.27734 0.003906-0.55859 0.11719-0.77344 0.33594-0.21875 0.21875-0.32812 0.49609-0.33594 0.77344-0.003906 0.26562 0.085938 0.53125 0.26563 0.75 0.36719 0.30469 0.82031 0.71875 1.3203 1.1758 2.2031 2.0117 5.5664 5.0859 7.3594 3.5156 0.90625-0.79297 2.082-2.3516 2.9023-3.4375 0.24609-0.32812 0.46094-0.60938 0.67188-0.87109 0.19922-0.29297 0.53516-0.48828 0.91797-0.48828 0.61328 0 1.1094 0.5 1.1094 1.1094v6.4414h10.309c0.10547-0.21875 0.24219-0.42578 0.41016-0.61719l0.074218-0.078125 3.1914-3.0859-2.7656-3.2812c-0.39063-0.46875-0.33203-1.1641 0.13281-1.5586 0.46875-0.39063 1.1641-0.33203 1.5586 0.13281l3.3867 4.0195c0.42188 0.44141 0.40625 1.1406-0.03125 1.5625l-3.8867 3.7578c-0.078125 0.097656-0.125 0.21094-0.14453 0.32422zm-62.832-37.594h57.508c0.44531 0 0.85156-0.18359 1.1484-0.47656 0.29688-0.29688 0.48047-0.70312 0.48047-1.1484 0-0.44531-0.18359-0.85156-0.48047-1.1484s-0.70312-0.48047-1.1484-0.48047h-57.508c-0.44531 0-0.85156 0.18359-1.1484 0.48047s-0.48047 0.70312-0.48047 1.1484c0 0.44531 0.18359 0.85156 0.48047 1.1484 0.29688 0.29297 0.70312 0.47656 1.1484 0.47656z" fill-rule="evenodd"/>
<text x="0.0" y="117.5" font-size="5.0" font-weight="bold" font-family="Arbeit Regular, Helvetica, Arial-Unicode, Arial, Sans-serif" fill="#000000">Created by Iqbal Taufiq Alim</text><text x="0.0" y="122.5" font-size="5.0" font-weight="bold" font-family="Arbeit Regular, Helvetica, Arial-Unicode, Arial, Sans-serif" fill="#000000">from Noun Project</text></svg>