<svg xmlns="http://www.w3.org/2000/svg" version="1.1" viewBox="-5.0 -10.0 110.0 135.0">
 <path d="m92.234 66.398-5.9922-25.734c-0.47656-2.043-2.5195-3.3164-4.5664-2.8438l-1.5156 0.35156 0.054688-0.85156v0.003907c0.03125-0.5-0.26172-0.96484-0.72656-1.1523l-6.6797-2.668c-0.24609-0.89844-0.54688-1.7812-0.89844-2.6445l3.6797-6.1836c0.25781-0.42969 0.20703-0.97656-0.12109-1.3516l-5.8281-6.6484c-0.33203-0.375-0.86719-0.5-1.3281-0.30078l-6.6094 2.8359c-0.80859-0.46484-1.6445-0.875-2.5-1.2383l-1.7695-6.9727c-0.125-0.48828-0.54688-0.83984-1.0469-0.87109l-8.8203-0.58203c-0.50391-0.03125-0.96484 0.26172-1.1523 0.72656l-2.668 6.6797h-0.003906c-0.89844 0.24609-1.7812 0.54688-2.6406 0.89844l-6.1836-3.6797c-0.42969-0.25781-0.97656-0.20703-1.3555 0.12109l-6.6523 5.8281c-0.375 0.33203-0.49609 0.86719-0.30078 1.3281l2.8398 6.6094c-0.46094 0.80859-0.875 1.6445-1.2383 2.5l-6.9727 1.7695c-0.48438 0.125-0.83594 0.54688-0.86719 1.0469l-0.36328 5.543-1.6836-0.39062c-2.043-0.47656-4.0898 0.79688-4.5703 2.8398l-5.9883 25.734c-0.47266 2.0469 0.80078 4.0859 2.8438 4.5703l5.7773 1.3398h-0.003907c2.0469 0.47266 4.0938-0.79688 4.5742-2.8438l0.35156-1.5156 20.016 20.027c1.3281 1.3281 3.2812 1.8242 5.082 1.2852 1.8047-0.53516 3.1641-2.0195 3.5469-3.8633l2.8555 2.8555-0.003906 0.003907c1.3398 1.3398 3.3125 1.832 5.1289 1.2734 1.8125-0.55859 3.1641-2.0742 3.5195-3.9375 1.8164 1.2695 4.2461 1.2266 6.0156-0.10938 1.7695-1.3398 2.4766-3.6641 1.75-5.7617 1.2148-0.089843 2.3516-0.61719 3.2109-1.4805 1.3633-1.375 1.8359-3.3984 1.2305-5.2383l6.9922-1.9297h0.003906c0.87109 0.57812 1.9414 0.77344 2.9609 0.53516l5.7773-1.3438h-0.003906c2.043-0.48047 3.3164-2.5234 2.8438-4.5703zm-69.609-32.031 6.7227-1.707c0.35938-0.089844 0.65625-0.34766 0.79297-0.69531 0.4375-1.1172 0.97266-2.1953 1.5938-3.2227 0.19531-0.32031 0.22266-0.71484 0.074219-1.0586l-2.7383-6.375 5.3867-4.7188 5.9609 3.5508c0.32031 0.19141 0.71484 0.21484 1.0586 0.066406 1.0977-0.48438 2.2383-0.87109 3.4023-1.1562 0.36328-0.089843 0.66016-0.34766 0.79688-0.69531l2.5742-6.4414 7.1445 0.47266 1.707 6.7227v-0.003906c0.089844 0.36328 0.35156 0.65625 0.69531 0.79297 1.1172 0.44141 2.1953 0.97266 3.2227 1.5977 0.32031 0.19141 0.71484 0.21875 1.0586 0.070312l6.375-2.7344 4.7188 5.3828-3.5508 5.9609c-0.19141 0.32422-0.21484 0.71875-0.066406 1.0586 0.48437 1.1016 0.87109 2.2383 1.1562 3.4023 0.089843 0.36328 0.34766 0.66016 0.69531 0.80078l6.4414 2.5742-0.046875 0.71484-1.8984 0.44141c-2.0469 0.47656-3.3203 2.5195-2.8477 4.5664l0.27344 1.1758c-4.0508 1.7109-6.5078 0.92578-8.8945-0.65234 1.3945-4.4805 0.62891-9.3516-2.0742-13.191-2.6992-3.8359-7.0312-6.2031-11.719-6.4023-4.6875-0.19922-9.2031 1.793-12.223 5.3867-3.0156 3.5938-4.1914 8.3867-3.1836 12.969h-8.2305c-0.23047-1.5469-1.3789-2.793-2.9023-3.1484l-1.8125-0.42188zm39.699 8.3555c-2.5195-1.9219-5.3789-4.1016-9.8203-4.2578-2.3516-0.10938-4.6406 0.79297-6.2891 2.4727l-2.0781 2.0781-6.5195 0.003906c-1.0078-3.8242-0.19531-7.8984 2.2031-11.039 2.3984-3.1406 6.1172-5 10.07-5.0352 3.9531-0.03125 7.6992 1.7617 10.152 4.8633 2.4531 3.0977 3.3359 7.1602 2.3945 10.996zm-43.625 26.918c-0.089844 0.38672-0.32812 0.72266-0.66797 0.92969-0.33203 0.21094-0.73438 0.27734-1.1211 0.1875l-5.7773-1.3398h0.003907c-0.80469-0.19141-1.3008-0.99219-1.1172-1.793l5.9922-25.727v-0.003907c0.089843-0.38672 0.32812-0.71875 0.66406-0.92578 0.33594-0.21094 0.73828-0.27734 1.1211-0.1875l5.7812 1.3438c0.80078 0.1875 1.2969 0.98828 1.1133 1.7891zm52.09 7.668c-1.0859 1.0859-2.8438 1.0898-3.9414 0.015625l-12.035-13.344c-0.42969-0.47656-1.1602-0.51562-1.6367-0.085938-0.47266 0.42969-0.51172 1.1602-0.082031 1.6367l12.062 13.375 0.019531 0.019531 0.019531 0.023438 1.1719 1.1719v-0.003906c0.52734 0.52344 0.82031 1.2383 0.82422 1.9844 0 0.74219-0.29688 1.457-0.82031 1.9844-0.52734 0.52344-1.2422 0.82031-1.9844 0.82031-0.74609 0-1.457-0.29688-1.9844-0.82422l-2.3359-2.3359-10.926-12.09c-0.42969-0.47656-1.1602-0.51172-1.6367-0.085938-0.47266 0.42969-0.51172 1.1641-0.082031 1.6367l10.945 12.113 0.019531 0.019532 0.019531 0.023437c1.0898 1.0938 1.0898 2.8633-0.003906 3.957s-2.8633 1.0938-3.957 0l-5.8594-5.8633-5.3438-5.9062c-0.20703-0.22656-0.49219-0.36719-0.80078-0.38281s-0.60938 0.09375-0.83594 0.29688c-0.23047 0.20703-0.36719 0.49609-0.37891 0.80469-0.015624 0.30859 0.089844 0.60938 0.29688 0.83594l5.3633 5.9297 0.042969 0.042969c1.0898 1.0938 1.0898 2.8672-0.003907 3.9609s-2.8672 1.0938-3.9609 0l-21.039-21.039 4.8125-20.664h15.082l-11.168 11.164c-0.37109 0.37109-0.44531 0.94531-0.18359 1.3984l0.066406 0.11719c0.050782 0.089844 0.10156 0.17969 0.14453 0.25 1.9453 3.3438 4.7891 5.0508 8.0117 4.8047 2.6992-0.20312 5.5078-1.7812 7.9023-4.4414 2.5-2.7656 4.6914-3.0273 8.8281-2.4453l5.1992 5.75 10.129 11.375 0.089844 0.10156c0.085937 0.09375 0.16406 0.17969 0.22266 0.25391 0.82031 1.1172 0.70312 2.6641-0.27344 3.6445zm1.5938-5.6523-10.039-11.27-5.4844-6.0664c-0.17969-0.19922-0.42188-0.32812-0.6875-0.36719-4.2305-0.62891-7.75-0.79688-11.297 3.1289-1.9961 2.2188-4.2539 3.5273-6.3555 3.6836-2.1953 0.16797-4.1172-0.95312-5.5898-3.2617l14.922-14.926c1.1914-1.2344 2.8594-1.8906 4.5703-1.8008 3.707 0.12891 6.0352 1.9062 8.5 3.7852 0.46484 0.35547 0.93359 0.71094 1.4102 1.0547 0.035157 0.027343 0.070313 0.054687 0.10938 0.078124 2.8789 2.0547 6.1328 3.6055 11.422 1.5l5.1836 22.266c0.027344 0.10937 0.054687 0.21875 0.089844 0.32422v0.003906zm17.406-3.6133 0.003907 0.003906c-0.21094 0.33594-0.54297 0.57422-0.92969 0.66406l-5.7695 1.3477c-0.48047 0.10938-0.98047-0.023438-1.3438-0.35156-0.011719-0.011719-0.019531-0.023437-0.03125-0.035156-0.14844-0.14062-0.26562-0.3125-0.34375-0.5l-0.019531-0.046875h0.003906c-0.023437-0.054688-0.039063-0.10938-0.054687-0.16406l-0.003907-0.015626-5.9883-25.734c-0.1875-0.80078 0.3125-1.6016 1.1133-1.7891l2.7266-0.63672 0.035156-0.007812 3.0156-0.70312-0.003906 0.003906c0.80078-0.18359 1.6016 0.3125 1.7891 1.1094l5.9922 25.738c0.089843 0.38281 0.019531 0.78516-0.1875 1.1211z"/>
<text x="0.0" y="117.5" font-size="5.0" font-weight="bold" font-family="Arbeit Regular, Helvetica, Arial-Unicode, Arial, Sans-serif" fill="#000000">Created by sheline line</text><text x="0.0" y="122.5" font-size="5.0" font-weight="bold" font-family="Arbeit Regular, Helvetica, Arial-Unicode, Arial, Sans-serif" fill="#000000">from Noun Project</text></svg>