<svg xmlns="http://www.w3.org/2000/svg" xmlns:xlink="http://www.w3.org/1999/xlink" xml:space="preserve" version="1.1" style="shape-rendering:geometricPrecision;text-rendering:geometricPrecision;image-rendering:optimizeQuality;" viewBox="0 0 846.66 1058.325" x="0px" y="0px" fill-rule="evenodd" clip-rule="evenodd"><defs><style type="text/css">
   
    .fil0 {fill:black;fill-rule:nonzero}
   
  </style></defs><g><path class="fil0" d="M592.09 654.22l-22.85 0c-3.75,0.51 -7.13,2.26 -9.68,4.79 -3.04,3.06 -4.95,7.31 -4.95,11.98l0 97.63c0,4.67 1.91,8.92 4.95,11.98 3.06,3.04 7.31,4.95 11.98,4.95l18.25 0c4.67,0 8.92,-1.91 11.98,-4.95 3.04,-3.06 4.95,-7.31 4.95,-11.98l0 -97.63c0,-4.67 -1.91,-8.92 -4.95,-11.98 -2.55,-2.53 -5.93,-4.28 -9.68,-4.79zm-28.35 -33.41l0 -38.72c-44.7,-4.03 -84.86,-23.84 -114.84,-53.82 -29.09,-29.09 -48.62,-67.77 -53.42,-110.89l-291.89 0c-9.35,0 -16.93,-7.58 -16.93,-16.93l0 -173.37c0,-9.35 7.58,-16.93 16.93,-16.93 159.03,0.07 318.06,0 477.08,0 51.46,0 98.05,20.86 131.77,54.58 33.72,33.72 54.58,80.32 54.58,131.77 0,51.46 -20.86,98.05 -54.58,131.77 -29.98,29.98 -70.13,49.79 -114.84,53.82l0 38.72c10.84,1.69 20.57,6.86 28.01,14.29 9.25,9.26 14.97,21.97 14.97,35.89l0 97.63c0,13.94 -5.72,26.63 -14.9,35.82 -9.26,9.25 -21.95,14.97 -35.89,14.97l-18.25 0c-13.92,0 -26.63,-5.72 -35.82,-14.9 -9.25,-9.26 -14.97,-21.95 -14.97,-35.89l0 -97.63c0,-13.92 5.72,-26.63 14.9,-35.82 7.5,-7.49 17.26,-12.67 28.09,-14.36zm-168.97 -237.29c3.19,-46.28 23.27,-87.93 54.13,-118.79 7.58,-7.58 15.8,-14.5 24.59,-20.69l-352.97 -0.1 0 139.58 274.25 0zm293.73 -94.85c-27.59,-27.59 -65.72,-44.66 -107.83,-44.66 -42.1,0 -80.24,17.07 -107.83,44.66 -27.59,27.59 -44.66,65.73 -44.66,107.83 0,42.11 17.07,80.24 44.66,107.83 27.59,27.59 65.73,44.66 107.83,44.66 42.11,0 80.24,-17.07 107.83,-44.66 27.59,-27.59 44.66,-65.72 44.66,-107.83 0,-42.1 -17.07,-80.24 -44.66,-107.83zm-584.91 298.11c-9.35,0 -16.93,-7.58 -16.93,-16.93 0,-9.35 7.58,-16.93 16.93,-16.93l258.26 0c9.35,0 16.93,7.58 16.93,16.93 0,9.35 -7.58,16.93 -16.93,16.93l-258.26 0zm0 -57.39c-9.35,0 -16.93,-7.58 -16.93,-16.93 0,-9.35 7.58,-16.93 16.93,-16.93l258.26 0c9.35,0 16.93,7.58 16.93,16.93 0,9.35 -7.58,16.93 -16.93,16.93l-258.26 0zm0 -57.39c-9.35,0 -16.93,-7.58 -16.93,-16.93 0,-9.35 7.58,-16.93 16.93,-16.93l258.26 0c9.35,0 16.93,7.58 16.93,16.93 0,9.35 -7.58,16.93 -16.93,16.93l-258.26 0zm375.99 -350.02c-9.35,0 -16.93,-7.58 -16.93,-16.93 0,-9.35 7.58,-16.93 16.93,-16.93l263.48 0c9.35,0 16.93,7.58 16.93,16.93 0,9.35 -7.58,16.93 -16.93,16.93l-263.48 0zm-156.55 -54.86c10.47,0 19.97,4.26 26.82,11.11 6.85,6.85 11.11,16.35 11.11,26.82 0,10.47 -4.26,19.97 -11.11,26.82 -6.85,6.85 -16.35,11.11 -26.82,11.11 -10.47,0 -19.97,-4.26 -26.82,-11.11 -6.85,-6.85 -11.11,-16.35 -11.11,-26.82 0,-10.47 4.26,-19.97 11.11,-26.82 6.85,-6.85 16.35,-11.11 26.82,-11.11zm2.88 35.05c-0.72,-0.72 -1.76,-1.19 -2.88,-1.19 -1.12,0 -2.16,0.47 -2.88,1.19 -0.72,0.72 -1.19,1.76 -1.19,2.88 0,1.12 0.47,2.16 1.19,2.88 0.72,0.72 1.76,1.19 2.88,1.19 1.12,0 2.16,-0.47 2.88,-1.19 0.72,-0.72 1.19,-1.76 1.19,-2.88 0,-1.12 -0.47,-2.16 -1.19,-2.88zm-102.1 -35.05c10.47,0 19.97,4.26 26.82,11.11 6.85,6.85 11.11,16.35 11.11,26.82 0,10.47 -4.26,19.97 -11.11,26.82 -6.85,6.85 -16.35,11.11 -26.82,11.11 -10.47,0 -19.97,-4.26 -26.82,-11.11 -6.85,-6.85 -11.11,-16.35 -11.11,-26.82 0,-10.47 4.26,-19.97 11.11,-26.82 6.85,-6.85 16.35,-11.11 26.82,-11.11zm2.88 35.05c-0.72,-0.72 -1.76,-1.19 -2.88,-1.19 -1.12,0 -2.16,0.47 -2.88,1.19 -0.72,0.72 -1.19,1.76 -1.19,2.88 0,1.12 0.47,2.16 1.19,2.88 0.72,0.72 1.76,1.19 2.88,1.19 1.12,0 2.16,-0.47 2.88,-1.19 0.72,-0.72 1.19,-1.76 1.19,-2.88 0,-1.12 -0.47,-2.16 -1.19,-2.88zm-102.1 -35.05c10.47,0 19.97,4.26 26.82,11.11 6.85,6.85 11.11,16.35 11.11,26.82 0,10.47 -4.26,19.97 -11.11,26.82 -6.85,6.85 -16.35,11.11 -26.82,11.11 -10.47,0 -19.97,-4.26 -26.82,-11.11 -6.85,-6.85 -11.11,-16.35 -11.11,-26.82 0,-10.47 4.26,-19.97 11.11,-26.82 6.85,-6.85 16.35,-11.11 26.82,-11.11zm2.88 35.05c-0.72,-0.72 -1.76,-1.19 -2.88,-1.19 -1.12,0 -2.16,0.47 -2.88,1.19 -0.72,0.72 -1.19,1.76 -1.19,2.88 0,1.12 0.47,2.16 1.19,2.88 0.72,0.72 1.76,1.19 2.88,1.19 1.12,0 2.16,-0.47 2.88,-1.19 0.72,-0.72 1.19,-1.76 1.19,-2.88 0,-1.12 -0.47,-2.16 -1.19,-2.88zm-69.76 48.54l731.23 0 0 -72.68c0,-4.63 -1.92,-8.87 -4.99,-11.94 -3.06,-3.06 -7.31,-4.98 -11.94,-4.98l-697.37 0c-4.63,0 -8.88,1.92 -11.94,4.98 -3.07,3.07 -4.99,7.31 -4.99,11.94l0 72.68zm731.23 33.86l-731.23 0 0 418.87c0,4.63 1.92,8.87 4.99,11.94 3.06,3.06 7.31,4.98 11.94,4.98l419.97 0c9.35,0 16.93,7.58 16.93,16.93 0,9.35 -7.58,16.93 -16.93,16.93l-419.97 0c-13.98,0 -26.7,-5.72 -35.88,-14.9 -9.19,-9.19 -14.91,-21.9 -14.91,-35.88l0 -525.41c0,-13.98 5.72,-26.69 14.91,-35.88 9.18,-9.18 21.9,-14.9 35.88,-14.9l697.37 0c13.98,0 26.7,5.72 35.88,14.9 9.19,9.19 14.91,21.9 14.91,35.88l0 525.41c0,13.98 -5.72,26.69 -14.91,35.88 -9.18,9.18 -21.9,14.9 -35.88,14.9l-105.29 0c-9.35,0 -16.93,-7.58 -16.93,-16.93 0,-9.35 7.58,-16.93 16.93,-16.93l105.29 0c4.63,0 8.88,-1.92 11.94,-4.98 3.07,-3.07 4.99,-7.31 4.99,-11.94l0 -418.87z"/></g><text x="0" y="861.66" fill="#000000" font-size="5px" font-weight="bold" font-family="'Helvetica Neue', Helvetica, Arial-Unicode, Arial, Sans-serif">Created by Rusurinusuhu</text><text x="0" y="866.66" fill="#000000" font-size="5px" font-weight="bold" font-family="'Helvetica Neue', Helvetica, Arial-Unicode, Arial, Sans-serif">from the Noun Project</text></svg>