<svg xmlns="http://www.w3.org/2000/svg" version="1.1" viewBox="-5.0 -10.0 110.0 135.0">
 <path d="m47.578 49.156c-0.23438-0.56641-0.78906-0.9375-1.4062-0.9375h-7.4297c0.90234-8.8711 7.0781-16.27 15.77-18.688l2.3359-0.64844c1.0664-0.29687 1.7305-1.3086 1.582-2.4023-0.14844-1.0977-1.0625-1.8906-2.168-1.8906h-11.938c-13.594 0-24.641 10.266-25.77 23.633h-7.6641c-0.60547 0-1.1562 0.35938-1.3945 0.91797-0.24219 0.55859-0.12891 1.2031 0.28906 1.6445l17.113 18.203c0.28125 0.30078 0.67187 0.47266 1.0859 0.48047h0.023437c0.40234 0 0.78906-0.16016 1.0781-0.44531l18.164-18.203c0.43359-0.43359 0.5625-1.0898 0.32812-1.6562zm-19.535 16.602-13.629-14.496h5.582c0.82422 0 1.4961-0.65625 1.5195-1.4766 0.36328-12.422 10.383-22.156 22.812-22.156h6.4062c-8.875 3.7109-14.832 12.227-15.137 22.066-0.011718 0.41016 0.14062 0.80859 0.42969 1.1055 0.28516 0.29688 0.67969 0.46094 1.0898 0.46094h5.3867l-14.465 14.496zm62.168-16.539-17.113-18.203c-0.28125-0.30078-0.67188-0.47266-1.0859-0.48047-0.41016 0.003906-0.80859 0.15625-1.0977 0.44531l-18.164 18.203c-0.43359 0.43359-0.5625 1.0898-0.32812 1.6562s0.78906 0.9375 1.4062 0.9375h7.4297c-0.90234 8.8711-7.0781 16.27-15.77 18.688l-2.3359 0.64844c-1.0664 0.29688-1.7305 1.3086-1.582 2.4023 0.14844 1.0977 1.0625 1.8906 2.168 1.8906h11.938c13.594 0 24.641-10.266 25.77-23.633h7.6641c0.60547 0 1.1562-0.35938 1.3945-0.91797 0.24219-0.55859 0.12891-1.2031-0.28906-1.6445zm-10.207-0.48047c-0.82422 0-1.4961 0.65625-1.5195 1.4766-0.36328 12.422-10.383 22.156-22.812 22.156h-6.4062c8.875-3.7109 14.832-12.227 15.137-22.066 0.011718-0.41016-0.14062-0.80859-0.42969-1.1055-0.28516-0.29688-0.67969-0.46094-1.0898-0.46094h-5.3867l14.465-14.496 13.629 14.496z"/>
<text x="0.0" y="117.5" font-size="5.0" font-weight="bold" font-family="Arbeit Regular, Helvetica, Arial-Unicode, Arial, Sans-serif" fill="#000000">Created by Puspa Kusuma</text><text x="0.0" y="122.5" font-size="5.0" font-weight="bold" font-family="Arbeit Regular, Helvetica, Arial-Unicode, Arial, Sans-serif" fill="#000000">from Noun Project</text></svg>